<?xml version="1.0" encoding="UTF-8"?>
<svg xmlns="http://www.w3.org/2000/svg" xmlns:xlink="http://www.w3.org/1999/xlink" width="854" height="480" viewBox="0 0 854 480">
<defs>
<g>
<g id="glyph-0-0">
<path d="M 4.902344 -1.585938 L 4.800781 0 L 0.328125 0 L 0.328125 -0.269531 C 0.402344 -0.273438 0.503906 -0.285156 0.628906 -0.300781 C 0.757812 -0.320312 0.839844 -0.335938 0.878906 -0.351562 C 0.957031 -0.390625 1.015625 -0.441406 1.046875 -0.5 C 1.078125 -0.5625 1.09375 -0.640625 1.09375 -0.734375 L 1.09375 -4.605469 C 1.09375 -4.691406 1.078125 -4.765625 1.050781 -4.828125 C 1.023438 -4.894531 0.964844 -4.945312 0.878906 -4.984375 C 0.808594 -5.019531 0.71875 -5.046875 0.601562 -5.074219 C 0.488281 -5.097656 0.394531 -5.113281 0.328125 -5.117188 L 0.328125 -5.390625 L 4.496094 -5.390625 L 4.496094 -4.089844 L 4.210938 -4.089844 C 4.160156 -4.28125 4.050781 -4.488281 3.882812 -4.703125 C 3.714844 -4.917969 3.554688 -5.039062 3.402344 -5.058594 C 3.324219 -5.070312 3.230469 -5.074219 3.121094 -5.082031 C 3.011719 -5.085938 2.886719 -5.089844 2.75 -5.089844 L 1.902344 -5.089844 L 1.902344 -2.945312 L 2.511719 -2.945312 C 2.707031 -2.945312 2.847656 -2.964844 2.9375 -3 C 3.027344 -3.039062 3.105469 -3.101562 3.175781 -3.1875 C 3.230469 -3.257812 3.277344 -3.359375 3.316406 -3.480469 C 3.355469 -3.601562 3.382812 -3.71875 3.394531 -3.828125 L 3.679688 -3.828125 L 3.679688 -1.714844 L 3.394531 -1.714844 C 3.386719 -1.839844 3.359375 -1.964844 3.3125 -2.101562 C 3.269531 -2.238281 3.222656 -2.335938 3.175781 -2.394531 C 3.097656 -2.496094 3.007812 -2.558594 2.90625 -2.589844 C 2.808594 -2.621094 2.675781 -2.636719 2.511719 -2.636719 L 1.902344 -2.636719 L 1.902344 -1.019531 C 1.902344 -0.859375 1.914062 -0.730469 1.9375 -0.636719 C 1.960938 -0.542969 2.003906 -0.472656 2.070312 -0.425781 C 2.136719 -0.378906 2.226562 -0.347656 2.339844 -0.332031 C 2.453125 -0.316406 2.613281 -0.3125 2.824219 -0.3125 C 2.910156 -0.3125 3.019531 -0.3125 3.15625 -0.3125 C 3.292969 -0.3125 3.40625 -0.316406 3.5 -0.328125 C 3.597656 -0.335938 3.695312 -0.355469 3.800781 -0.382812 C 3.902344 -0.410156 3.976562 -0.445312 4.019531 -0.488281 C 4.132812 -0.613281 4.257812 -0.796875 4.382812 -1.042969 C 4.511719 -1.289062 4.59375 -1.472656 4.628906 -1.585938 Z "/>
</g>
<g id="glyph-0-1">
<path d="M 5.53125 0 L 3.011719 0 L 3.011719 -0.269531 C 3.21875 -0.273438 3.386719 -0.292969 3.515625 -0.328125 C 3.640625 -0.363281 3.707031 -0.414062 3.707031 -0.484375 C 3.707031 -0.523438 3.675781 -0.601562 3.617188 -0.722656 C 3.5625 -0.839844 3.484375 -0.972656 3.394531 -1.121094 C 3.292969 -1.28125 3.171875 -1.472656 3.035156 -1.691406 C 2.894531 -1.910156 2.757812 -2.121094 2.621094 -2.320312 C 2.398438 -2.027344 2.144531 -1.671875 1.859375 -1.257812 C 1.578125 -0.84375 1.433594 -0.601562 1.433594 -0.527344 C 1.433594 -0.445312 1.472656 -0.382812 1.550781 -0.34375 C 1.628906 -0.304688 1.796875 -0.28125 2.0625 -0.269531 L 2.0625 0 L 0.0507812 0 L 0.0507812 -0.269531 C 0.113281 -0.273438 0.199219 -0.285156 0.300781 -0.296875 C 0.40625 -0.3125 0.488281 -0.335938 0.554688 -0.367188 C 0.6875 -0.4375 0.792969 -0.515625 0.871094 -0.597656 C 0.953125 -0.679688 1.03125 -0.777344 1.113281 -0.890625 C 1.273438 -1.113281 1.480469 -1.390625 1.734375 -1.722656 C 1.988281 -2.054688 2.210938 -2.359375 2.40625 -2.632812 C 2.257812 -2.847656 2.070312 -3.121094 1.84375 -3.449219 C 1.617188 -3.78125 1.371094 -4.132812 1.113281 -4.511719 C 1.003906 -4.671875 0.921875 -4.785156 0.859375 -4.847656 C 0.796875 -4.914062 0.714844 -4.972656 0.609375 -5.019531 C 0.550781 -5.046875 0.464844 -5.070312 0.359375 -5.085938 C 0.25 -5.101562 0.164062 -5.113281 0.101562 -5.117188 L 0.101562 -5.390625 L 2.597656 -5.390625 L 2.597656 -5.117188 C 2.449219 -5.113281 2.296875 -5.09375 2.140625 -5.0625 C 1.984375 -5.03125 1.902344 -4.984375 1.902344 -4.917969 C 1.902344 -4.871094 1.933594 -4.785156 2 -4.664062 C 2.0625 -4.546875 2.136719 -4.417969 2.222656 -4.28125 C 2.3125 -4.136719 2.410156 -3.980469 2.519531 -3.808594 C 2.628906 -3.636719 2.761719 -3.4375 2.917969 -3.210938 C 3.203125 -3.601562 3.449219 -3.949219 3.65625 -4.261719 C 3.867188 -4.570312 3.96875 -4.773438 3.96875 -4.867188 C 3.96875 -4.949219 3.921875 -5.007812 3.828125 -5.046875 C 3.730469 -5.085938 3.570312 -5.109375 3.34375 -5.117188 L 3.34375 -5.390625 L 5.355469 -5.390625 L 5.355469 -5.117188 C 5.292969 -5.117188 5.207031 -5.105469 5.105469 -5.089844 C 5.003906 -5.074219 4.917969 -5.050781 4.847656 -5.019531 C 4.71875 -4.957031 4.621094 -4.890625 4.554688 -4.816406 C 4.492188 -4.742188 4.402344 -4.636719 4.296875 -4.496094 C 4.09375 -4.234375 3.90625 -3.988281 3.734375 -3.761719 C 3.5625 -3.53125 3.359375 -3.25 3.117188 -2.921875 C 3.320312 -2.632812 3.546875 -2.304688 3.796875 -1.9375 C 4.046875 -1.574219 4.285156 -1.222656 4.511719 -0.886719 C 4.589844 -0.773438 4.679688 -0.667969 4.78125 -0.5625 C 4.882812 -0.460938 4.964844 -0.390625 5.027344 -0.351562 C 5.089844 -0.316406 5.171875 -0.296875 5.273438 -0.285156 C 5.375 -0.277344 5.460938 -0.273438 5.53125 -0.269531 Z "/>
</g>
</g>
</defs>
<g fill="rgb(100%, 100%, 100%)" fill-opacity="1">
<use xlink:href="#glyph-0-0" x="30" y="27.131836"/>
<use xlink:href="#glyph-0-1" x="35" y="27.131836"/>
</g>
</svg>
